<svg xmlns="http://www.w3.org/2000/svg" xmlns:xlink="http://www.w3.org/1999/xlink" preserveAspectRatio="xMidYMid" width="22.375" height="18.1" viewBox="0 0 22.375 18.1">
  <defs>
    <style>
      .cls-1 {
        fill: #00abf0;
        fill-rule: evenodd;
      }
    </style>
  </defs>
  <path d="M20.426,2.994 L22.365,2.358 L20.735,5.036 C20.675,5.911 20.367,6.718 19.891,7.399 C19.423,9.208 16.654,18.215 7.983,18.105 C1.158,18.019 -0.007,17.317 -0.007,17.317 C-0.007,17.317 7.772,15.738 6.385,14.168 C4.460,14.213 2.487,13.252 1.591,11.806 C2.769,11.779 4.462,11.855 3.189,11.019 C1.916,10.182 -0.032,8.829 -0.007,7.082 C0.940,7.075 2.390,7.082 2.390,7.082 C2.390,7.082 -0.082,5.925 -0.007,3.932 C0.068,1.939 0.792,-0.005 0.792,-0.005 C0.792,-0.005 5.361,5.482 8.782,5.507 C9.785,5.514 10.593,5.517 11.261,5.517 C11.215,5.257 11.179,4.993 11.179,4.719 C11.179,2.110 13.326,-0.005 15.973,-0.005 C17.134,-0.005 18.185,0.418 19.015,1.096 L22.365,-0.005 L20.297,2.712 C20.343,2.806 20.388,2.897 20.426,2.994 Z" class="cls-1"/>
</svg>

