<svg xmlns="http://www.w3.org/2000/svg" xmlns:xlink="http://www.w3.org/1999/xlink" preserveAspectRatio="xMidYMid" width="48" height="48" viewBox="0 0 26.594 26.78">
  <defs>
    <style>
      .cls-1 {
        fill: #ea4652;
        fill-rule: evenodd;
      }
    </style>
  </defs>
  <path d="M18.912,26.779 L7.670,26.779 C3.428,26.779 -0.011,23.317 -0.011,19.047 L-0.011,7.729 C-0.011,3.459 3.428,-0.003 7.670,-0.003 L18.912,-0.003 C23.154,-0.003 26.593,3.459 26.593,7.729 L26.593,19.047 C26.593,23.317 23.154,26.779 18.912,26.779 ZM24.080,7.378 C24.080,4.660 21.891,2.457 19.192,2.457 C19.192,2.457 16.356,2.316 13.582,2.316 C10.475,2.316 7.390,2.457 7.390,2.457 C4.691,2.457 2.503,4.660 2.503,7.378 C2.503,7.378 2.433,10.563 2.433,13.634 C2.433,16.495 2.503,19.258 2.503,19.258 C2.503,21.975 4.691,24.178 7.390,24.178 C7.390,24.178 10.443,24.319 13.443,24.319 C16.341,24.319 19.192,24.178 19.192,24.178 C21.891,24.178 24.080,21.975 24.080,19.258 C24.080,19.258 24.219,16.495 24.219,13.634 C24.219,10.563 24.080,7.378 24.080,7.378 ZM20.379,7.800 C19.492,7.800 18.773,7.076 18.773,6.183 C18.773,5.290 19.492,4.566 20.379,4.566 C21.266,4.566 21.985,5.290 21.985,6.183 C21.985,7.076 21.266,7.800 20.379,7.800 ZM13.291,20.312 C9.492,20.312 6.413,17.212 6.413,13.388 C6.413,9.564 9.492,6.464 13.291,6.464 C17.090,6.464 20.169,9.564 20.169,13.388 C20.169,17.212 17.090,20.312 13.291,20.312 ZM13.291,8.854 C10.843,8.854 8.857,10.853 8.857,13.318 C8.857,15.783 10.843,17.782 13.291,17.782 C15.740,17.782 17.725,15.783 17.725,13.318 C17.725,10.853 15.740,8.854 13.291,8.854 Z" class="cls-1"/>
</svg>

