<svg version="1.1" baseProfile="full" xmlns="http://www.w3.org/2000/svg" xmlns:xlink="http://www.w3.org/1999/xlink" xmlns:ev="http://www.w3.org/2001/xml-events" xml:space="preserve" x="0px" y="0px" width="21px" height="21px"  viewBox="0 0 21 21" preserveAspectRatio="none" shape-rendering="geometricPrecision"><path fill="#d4cbc0" d="M20.656,16.019 L15.820,12.787 C15.606,12.643 15.333,12.616 15.094,12.713 C14.063,13.130 12.994,13.470 11.866,13.737 C10.974,13.111 10.133,12.404 9.364,11.636 C8.605,10.876 7.908,10.047 7.262,9.131 C7.520,8.032 7.864,6.948 8.286,5.904 C8.384,5.665 8.355,5.392 8.211,5.178 L4.981,0.343 C4.770,0.027 4.360,-0.091 4.015,0.064 C3.641,0.231 3.272,0.424 2.918,0.641 C2.249,1.049 1.631,1.534 1.083,2.082 C0.732,2.434 0.459,2.845 0.270,3.308 C0.136,3.640 0.051,3.987 0.016,4.344 C0.015,4.352 0.012,4.418 0.011,4.427 C0.005,4.519 -0.001,4.610 -0.001,4.700 C0.000,5.434 0.138,6.145 0.411,6.817 C1.566,9.661 3.222,12.247 5.335,14.501 C5.521,14.700 5.711,14.897 5.909,15.095 C6.102,15.287 6.298,15.476 6.496,15.661 C8.756,17.780 11.342,19.437 14.181,20.587 C14.854,20.861 15.567,20.999 16.298,20.999 C16.386,20.999 16.474,20.994 16.562,20.989 C16.571,20.988 16.644,20.984 16.652,20.982 C17.011,20.948 17.362,20.862 17.688,20.729 C18.148,20.544 18.561,20.270 18.916,19.915 C19.463,19.366 19.949,18.750 20.357,18.081 C20.572,17.731 20.766,17.362 20.934,16.986 C21.090,16.640 20.972,16.230 20.656,16.019 ZM19.026,17.267 C18.682,17.831 18.273,18.351 17.812,18.812 C17.607,19.018 17.369,19.175 17.102,19.282 C16.912,19.360 16.711,19.410 16.465,19.431 C15.878,19.472 15.305,19.360 14.767,19.141 C12.105,18.063 9.683,16.511 7.562,14.523 C7.375,14.348 7.190,14.169 7.011,13.992 C6.829,13.809 6.652,13.624 6.476,13.434 C4.492,11.321 2.938,8.897 1.857,6.230 C1.660,5.745 1.560,5.230 1.559,4.700 C1.559,4.643 1.564,4.585 1.568,4.495 C1.589,4.287 1.639,4.085 1.716,3.895 C1.825,3.628 1.983,3.390 2.187,3.186 C2.647,2.724 3.167,2.316 3.731,1.973 C3.841,1.905 3.952,1.842 4.064,1.779 L6.688,5.705 C6.286,6.752 5.955,7.840 5.693,8.992 C5.632,9.270 5.695,9.603 5.897,9.903 C6.595,10.913 7.390,11.867 8.261,12.738 C9.129,13.607 10.083,14.402 11.158,15.144 C11.333,15.262 11.562,15.329 11.785,15.329 C11.859,15.329 11.931,15.322 12.072,15.291 C13.163,15.043 14.245,14.714 15.293,14.310 L19.219,16.934 C19.157,17.047 19.093,17.158 19.026,17.267 Z" /></svg>