<?xml version="1.0" encoding="utf-8"?>
<svg xmlns="http://www.w3.org/2000/svg" width="100" height="100" viewBox="0 0 64 64">
                                <circle cx="32" cy="32" r="32" fill="#ebf2fe" />
                                <path d="M29.999 18H34a1 1 0 0 0 0-2h-4.001a1 1 0 0 0 0 2zM40.972 20.592a50.025 50.025 0 0 0 1.813 3.126 2.553 2.553 0 0 0 4.445-.024l.142-.225a49.948 49.948 0 0 0 1.656-2.876c.248-.469.48-.924.689-1.365A10.51 10.51 0 0 0 51 15a6 6 0 0 0-12 0 10.51 10.51 0 0 0 1.283 4.228c.21.44.44.897.69 1.364zM45 11a4 4 0 0 1 4 4c0 2.21-3.477 7.652-3.477 7.652a.565.565 0 0 1-1.046 0S41 17.209 41 15a4 4 0 0 1 4-4z" />
                                <circle cx="38" cy="47" r="1" />
                                <path d="M50.36 32.157a10.876 10.876 0 0 0-4.289-.695c-.066.003-.11.005-.145.008L18 31.467a9.066 9.066 0 0 1-1.043-.167 10.037 10.037 0 0 1-2.5-.87A5.94 5.94 0 0 1 11 24.734a5.94 5.94 0 0 1 3.457-5.696 10.034 10.034 0 0 1 2.5-.87 8.26 8.26 0 0 1 1.103-.17l6.893.001.046.001h1.002a1 1 0 0 0 0-2H18a9.819 9.819 0 0 0-1.457.21 12.006 12.006 0 0 0-3 1.048A7.918 7.918 0 0 0 9 24.734a7.918 7.918 0 0 0 4.543 7.475 12.006 12.006 0 0 0 3 1.048 10.118 10.118 0 0 0 1.397.208l28.06.002.15-.006a9.083 9.083 0 0 1 1.32.053 8.655 8.655 0 0 1 2.17.509c2.132.822 3.36 2.426 3.36 5.211a5.968 5.968 0 0 1-3.455 5.753 9.814 9.814 0 0 1-2.495.855 8.092 8.092 0 0 1-1.1.16L42.044 46 42 46a1 1 0 0 0 0 2h4a9.731 9.731 0 0 0 1.45-.198 11.785 11.785 0 0 0 3.005-1.033A7.947 7.947 0 0 0 55 39.234c0-3.657-1.772-5.971-4.64-7.077zM34 46h-4a1 1 0 0 0 0 2h4a1 1 0 0 0 0-2zM19 39a6 6 0 0 0-6 6 10.51 10.51 0 0 0 1.283 4.228c.21.44.44.897.69 1.364a50.025 50.025 0 0 0 1.812 3.126 2.553 2.553 0 0 0 4.445-.024l.141-.225a49.948 49.948 0 0 0 1.656-2.876c.25-.469.48-.924.69-1.365A10.51 10.51 0 0 0 25 45a6 6 0 0 0-6-6zm.523 13.652a.565.565 0 0 1-1.046 0S15 47.209 15 45a4 4 0 0 1 8 0c0 2.21-3.477 7.652-3.477 7.652z" />
                            </svg>