<svg xmlns="http://www.w3.org/2000/svg" xmlns:xlink="http://www.w3.org/1999/xlink" preserveAspectRatio="xMidYMid" width="30.313" height="17.12" viewBox="0 0 30.313 17.12">
  <defs>
    <style>
      .cls-1 {
        fill: #40658b;
        fill-rule: evenodd;
      }
    </style>
  </defs>
  <path d="M14.845,17.054 L16.656,17.054 C16.656,17.054 17.203,16.994 17.484,16.695 C17.740,16.421 17.733,15.907 17.733,15.907 C17.733,15.907 17.697,13.497 18.825,13.141 C19.938,12.792 21.366,15.471 22.880,16.501 C24.025,17.280 24.895,17.110 24.895,17.110 L28.943,17.054 C28.943,17.054 31.060,16.924 30.056,15.274 C29.974,15.139 29.472,14.053 27.047,11.821 C24.508,9.486 24.848,9.864 27.906,5.824 C29.769,3.363 30.513,1.862 30.280,1.219 C30.058,0.606 28.689,0.768 28.689,0.768 L24.131,0.795 C24.131,0.795 23.792,0.750 23.542,0.898 C23.297,1.044 23.140,1.383 23.140,1.383 C23.140,1.383 22.418,3.287 21.456,4.906 C19.427,8.322 18.615,8.503 18.283,8.291 C17.511,7.796 17.704,6.305 17.704,5.245 C17.704,1.934 18.211,0.554 16.718,0.196 C16.222,0.078 15.857,-0.001 14.590,-0.013 C12.963,-0.030 11.587,-0.009 10.808,0.370 C10.289,0.621 9.889,1.182 10.133,1.215 C10.434,1.255 11.116,1.397 11.478,1.885 C11.945,2.515 11.929,3.930 11.929,3.930 C11.929,3.930 12.197,7.827 11.302,8.311 C10.687,8.643 9.845,7.965 8.035,4.865 C7.108,3.278 6.408,1.523 6.408,1.523 C6.408,1.523 6.273,1.195 6.032,1.020 C5.740,0.807 5.332,0.740 5.332,0.740 L1.001,0.768 C1.001,0.768 0.351,0.786 0.112,1.066 C-0.101,1.315 0.095,1.831 0.095,1.831 C0.095,1.831 3.486,9.695 7.326,13.658 C10.847,17.293 14.845,17.054 14.845,17.054 Z" class="cls-1"/>
</svg>

